# xmcd CD database file
#
# Track frame offsets:
#	150
#	8478
#	26816
#	56443
#	67850
#	73402
#	76245
#	84817
#	94515
#	115546
#	129303
#	147455
#	163357
#	191634
#	204771
#	218678
#
# Disc length: 3041 seconds
#
# Revision: 2
# Processed by: cddbd v1.4PL0 Copyright (c) Steve Scherf et al.
# Submitted via: CDex 1.40Beta9
#
DISCID=cd0bdf10
DTITLE=Cavity - Miscellaneous Recollections 92-97
DYEAR=1900
DGENRE=Metal
TTITLE0=Wounded
TTITLE1=Big Hit Man
TTITLE2=Sometimes Sweet Susan
TTITLE3=Fuck Diablo
TTITLE4=Angelrust
TTITLE5=Spine I
TTITLE6=Spine II
TTITLE7=Covered Twice
TTITLE8=The Oblivionist
TTITLE9=Shutdown (Annihlation Man)
TTITLE10=Perseverance
TTITLE11=Human Abjection
TTITLE12=Scalpel
TTITLE13=Feeling Odd
TTITLE14=One Night's Worth (of upheaval)
TTITLE15=Slug
EXTD=ID3G: 9
EXTT0=
EXTT1=
EXTT2=
EXTT3=
EXTT4=
EXTT5=
EXTT6=
EXTT7=
EXTT8=
EXTT9=
EXTT10=
EXTT11=
EXTT12=
EXTT13=
EXTT14=
EXTT15=
PLAYORDER=
